<svg height="16px" viewBox="0 0 512 512" width="16px" xmlns="http://www.w3.org/2000/svg"><g id="Fill_out_line" data-name="Fill out line"><path d="m440 296a97.83893 97.83893 0 0 1 -72.85 68.63l-15.15 3.37-61.92993-87.42-10.07007-14.22-40-23.87-48-72-13.66-27.33008-12.43-24.85987a14.92758 14.92758 0 0 1 5.1-19.11011 15.16731 15.16731 0 0 1 4.31-1.96 14.57863 14.57863 0 0 1 3.92-.53 14.91178 14.91178 0 0 1 13.11 7.76l-9.7-17.78a15.17445 15.17445 0 0 1 26.36-15.03l-10.64-18.24a16.412 16.412 0 0 1 27.8-17.41994c.2.29.38.58008.56.89l5 8.56995a14.26015 14.26015 0 0 1 24.18-15.1l22.79 34.18005 10.56 15.84a14.19388 14.19388 0 0 1 27.46-3.38l27.28 75.01v56z" fill="#111111"/><path d="m154.32 249.99-.47.39-1.85-2.38z" fill="#3ea7ff"/><path d="m154.32 249.99-.47.39-1.85-2.38z" fill="#3ea7ff"/><path d="m352 424a143.597 143.597 0 0 1 -88.32007 60.51l-15.67993 3.49-56-136-32-16-32-64-42.13-36.11a16.9248 16.9248 0 0 1 11.02-29.77 16.48063 16.48063 0 0 1 3.63.4 16.71047 16.71047 0 0 1 7.38 3.68l44.1 37.8 1.85 2.38.47-.39-2.32-1.99-46.5-59.79a14.38417 14.38417 0 1 1 22.71-17.65991l4.45 5.73a17.01311 17.01311 0 0 1 26.59-21.22 17.42769 17.42769 0 0 1 1.08 1.43991l6.13995 9.2a15.74 15.74 0 0 1 25.94005-17.83l14.42 20.36 1.17-.23a48.41742 48.41742 0 0 1 54.64 30.07007l25.36 65.92993-16 40z" fill="#65dcff"/><path d="m445.40576 290.10254-93.40576-85.62154v-52.481a8.00636 8.00636 0 0 0 -.48145-2.73389l-27.27734-75.01172a22.11649 22.11649 0 0 0 -35.48938-9.062l-26.18542-39.27833a22.26031 22.26031 0 0 0 -36.33008-1.00781 24.42473 24.42473 0 0 0 -35.15433 31.85889 23.13439 23.13439 0 0 0 -16.12854 32.35815 22.89622 22.89622 0 0 0 -16.20007 32.75855l.84863 1.69677 14.30957-7.15722-.84814-1.6958a6.9331 6.9331 0 0 1 2.36865-8.86963 6.92433 6.92433 0 0 1 9.90576 2.45654l.00037-.00024 8.46447 15.51831 14.0459-7.66114-18.17624-33.32373a7.17475 7.17475 0 0 1 12.4961-7.05078l38.92138 66.72217a7.99983 7.99983 0 0 0 13.82032-8.06152l-49.625-85.07227a8.41177 8.41177 0 0 1 14.53173-8.477l4.95557 8.49609.04443.07569 40.27295 69.03906a7.99983 7.99983 0 0 0 13.82032-8.06152l-40.29493-69.07769a6.2604 6.2604 0 0 1 10.63868-6.58887l31.95825 47.93775c.02038.52026.04614 1.04126.10425 1.56469l5.48291 49.34766a40.40115 40.40115 0 0 0 11.54394 24.01758l11.31348-11.31348a24.34358 24.34358 0 0 1 -6.95508-14.47119l-5.48291-49.34717a6.231 6.231 0 0 1 4.19971-6.56543 6.16726 6.16726 0 0 1 7.78564 3.76221l26.7959 73.68799v54.59033a7.99964 7.99964 0 0 0 2.59424 5.89746l92.24658 84.55954a89.76 89.76 0 0 1 -65.43018 58.36768l-9.95605 2.2124-47.93115-67.66162-13.05567 9.249 51.0044 72a7.99615 7.99615 0 0 0 8.26318 3.18506l15.146-3.36572a105.75543 105.75543 0 0 0 78.811-74.2461 8.00113 8.00113 0 0 0 -2.28659-8.09516z"/><path d="m280.99072 303.064 14.437-36.09277a7.9984 7.9984 0 0 0 .03907-5.84277l-24.9287-64.81596a57.6582 57.6582 0 0 0 -60.0293-36.729l-11.57324-16.33838a23.72522 23.72522 0 0 0 -39.65039 1.39355 25.01219 25.01219 0 0 0 -36.75537 13.124 22.36449 22.36449 0 0 0 -23.34424 35.36376l4.68164 6.01856a24.90791 24.90791 0 0 0 -23.20069 42.82034l40.90039 35.05713 31.27784 62.55518a7.99662 7.99662 0 0 0 3.57763 3.57763l29.3208 14.66065 54.85938 133.23a7.99413 7.99413 0 0 0 9.13281 4.76367l15.68506-3.48535a150.89382 150.89382 0 0 0 93.23584-63.88672 7.99953 7.99953 0 0 0 0-8.875zm-19.041 173.64112-9.11475 2.02539-53.43751-129.77641a7.99942 7.99942 0 0 0 -3.81982-4.10937l-29.61475-14.80762-30.80762-61.61475a7.99577 7.99577 0 0 0 -1.94873-2.49658l-42.12744-36.10889a8.92017 8.92017 0 0 1 -.50195-13.08056 8.96133 8.96133 0 0 1 12.11328-.46485l44.103 37.80274a8.00023 8.00023 0 0 0 11.52148-10.98584l-46.49951-59.78516a6.38455 6.38455 0 0 1 1.49756-9.231 6.40938 6.40938 0 0 1 8.58008 1.39257l4.46923 5.7461.06543.08447 43.19141 55.53174a8.00015 8.00015 0 0 0 12.62988-9.82324l-43.21872-55.56636a9.01594 9.01594 0 1 1 14.64551-10.5015l37.86622 56.79886a7.99982 7.99982 0 0 0 13.3125-8.875l-31.73193-47.59814a7.74036 7.74036 0 0 1 2.478-10.94287 7.77919 7.77919 0 0 1 10.2788 2.1748l31.21523 44.06885 16.29163 23.9385a8 8 0 0 0 13.22754-9.002l-16.3335-24c-.01422-.021-.03088-.03906-.04528-.05981s-.02558-.0426-.04017-.06323l-8.35839-11.79981a41.69178 41.69178 0 0 1 33.76806 26.48l23.80225 61.88672-14.83447 37.08594a7.99917 7.99917 0 0 0 .77148 7.40869l76.98047 115.47119a134.914 134.914 0 0 1 -80.37451 52.79639z"/></g></svg>
