<svg id="Layer_1" enable-background="new 0 0 512 512" height="512" viewBox="0 0 512 512" width="512" xmlns="http://www.w3.org/2000/svg"><circle cx="255.992" cy="255.946" fill="#e04955" r="248.456"/><path d="m273.489 503.792c-5.779.41-11.618.61-17.497.61-137.216 0-248.456-111.24-248.456-248.456s111.24-248.456 248.456-248.456c5.879 0 11.718.2 17.497.61-129.047 8.978-230.959 116.509-230.959 247.846s101.912 238.867 230.959 247.846z" fill="#d80a61"/><ellipse cx="255.992" cy="255.946" fill="#fff5f4" rx="205.422" ry="205.423" transform="matrix(.707 -.707 .707 .707 -106.003 255.978)"/><path d="m145.732 401.2c35.604 35.604 81.136 55.38 127.757 59.329-58.27 4.939-118.259-14.837-162.751-59.329-80.096-80.096-80.096-210.413 0-290.509 44.492-44.492 104.482-64.269 162.751-59.33-46.622 3.949-92.154 23.726-127.757 59.33-80.096 80.096-80.096 210.413 0 290.509z" fill="#eee6e3"/><path d="m265.992 158.406-9.998 21.921-10.008-21.921c-40.563-83.526-165.981-10.938-128.207 87.74 4.289 11.207 10.378 21.439 17.687 30.472.948 1.172 79.372 98.112 109.202 134.973 5.833 7.207 16.817 7.207 22.649-.001 29.819-36.856 108.218-133.761 109.197-134.972 7.309-9.033 13.408-19.265 17.697-30.472 37.762-98.678-87.656-171.266-128.219-87.74z" fill="#ea7f87"/><path d="m273.489 403.959c-2.23 2.756-4.299 5.313-6.175 7.632-5.832 7.208-16.817 7.209-22.649.001-29.829-36.863-108.248-133.805-109.201-134.97-7.309-9.038-13.398-19.267-17.687-30.475-29.345-76.666 39.803-137.586 91.144-121.778-41.862 11.568-79.086 61.859-56.15 121.778 4.289 11.208 10.378 21.436 17.687 30.475.889 1.09 69.817 86.295 103.031 127.337z" fill="#e5646e"/><path d="m386.719 417.334-290.554-290.601 3.855-25.76 26.603-5.023 289.757 289.639.417 28.829z" fill="#e04955"/><path d="m436.979 74.958c-134.662-134.662-364.695-79.948-424.186 100.98-1.294 3.934.848 8.172 4.781 9.466 3.938 1.294 8.173-.847 9.466-4.781 8.908-27.094 22.27-51.749 39.106-73.283l20.094 20.094c-64.797 85.558-56.761 209.657 25.92 285.51 3.055 2.801 7.798 2.593 10.595-.457 2.8-3.052 2.595-7.795-.456-10.595-40.129-36.81-64.136-88.623-64.136-145.901 0-42.49 13.718-84.013 38.783-117.851l20.728 20.727c-16.257 26.379-18.825 58.8-6.901 89.961 8.87 23.174 8.726 20.029 133.173 173.796 6.208 7.671 17.89 7.661 24.087.001 8.583-10.612 26.232-32.422 50.71-62.69l55.058 55.058c-66.812 49.492-159.03 52.179-228.857 4.813-3.428-2.325-8.09-1.431-10.415 1.996-2.325 3.428-1.43 8.09 1.997 10.415 76.366 51.802 176.555 47.576 247.98-6.52l19.927 19.927c-40.941 32.11-92.493 51.279-148.44 51.279-150.861 0-266.1-138.264-236.338-288.157.806-4.062-1.833-8.009-5.894-8.816-4.063-.805-8.009 1.832-8.816 5.894-16.056 80.875 6.923 167.97 70.061 231.109 92.867 92.867 241.759 101.444 345.461 15.131 115.596-97.274 122.376-271.241 16.512-377.106zm-180.988 338.418c-.237 0-.344-.132-.389-.187-123.99-153.205-122.931-149.099-130.822-169.722-12.57-32.848-4.702-58.303 3.853-73.641l57.134 57.134-10.578 23.127h-14.64c-4.142 0-7.499 3.357-7.499 7.499s3.357 7.499 7.499 7.499h19.457c2.934 0 5.599-1.712 6.819-4.38l10.258-22.429 10.204 10.204c4.562 16.332 9.704 34.652 21.847 93.301.632 3.055 3.089 5.399 6.171 5.886.393.063.785.093 1.174.093 2.663 0 5.165-1.422 6.513-3.786 10.329-18.127 14.814-28.238 19.819-39.97l45.268 45.267c-.256.314-51.683 64.105-52.088 64.105zm-27.542-143.734 22.928 22.928c-.416.975-.825 1.936-1.225 2.877-3.33 7.83-6.224 14.629-10.547 23.227-4.794-22.47-8.313-37.624-11.156-49.032zm187.527 166.317c-12.651-12.651-327.935-327.934-340.189-340.188 6.29-7.081 12.977-13.769 20.026-20.033l25.729 25.729.015.015 153.113 153.112c.008.008.016.016.024.024l161.312 161.312c-6.282 7.059-12.97 13.748-20.03 20.029zm-32.461-168.514c-3.306-2.494-8.008-1.833-10.502 1.474-1.533 2.035.311-.279-28.046 34.763l-55.907-55.907c8.383-16.388 18.595-35.464 30.976-57.856l8.545 38.977c.755 3.441 3.802 5.893 7.325 5.893h30.445c4.142 0 7.499-3.357 7.499-7.499s-3.357-7.499-7.499-7.499h-24.412l-11.496-52.437c-1.472-6.715-10.504-8.066-13.868-2.057-15.751 28.135-28.458 51.587-38.654 71.339l-104.327-104.328c26.984-8.526 52.014 1.376 65.606 29.291l9.97 21.843c2.666 5.84 10.985 5.831 13.645-.002l9.959-21.841c36.331-74.6 148.829-8.022 114.429 81.87-4.415 11.541 10.057 15.348 13.488 6.693 42.868-108.362-96.527-187.53-141.446-95.035-.058.115-3.203 7.018-3.256 7.135-.106-.232-3.151-6.905-3.259-7.135-18.878-38.88-56.051-49.028-90.817-34.5l-23.727-23.727c78.509-58.364 187.904-50.762 257.758 19.094 69.856 69.856 77.456 179.249 19.093 257.757l-59.406-59.406c28.953-35.781 27.554-34.006 29.358-36.399 2.493-3.306 1.833-8.008-1.474-10.501zm42.229 117.013c30.11-39.716 45.286-88.825 42.815-139.07-8.407-170.887-205.497-261.987-341.08-159.194l-20.105-20.105c41.379-32.372 93.259-51.1 148.618-51.1 132.864 0 240.957 108.093 240.957 240.957 0 55.946-19.168 107.498-51.279 148.439z"/></svg>