<?xml version="1.0" encoding="UTF-8"?>
<svg xmlns="http://www.w3.org/2000/svg" xmlns:xlink="http://www.w3.org/1999/xlink" width="20pt" height="20pt" viewBox="0 0 20 20" version="1.1">
<g id="surface1">
<path style=" stroke:none;fill-rule:nonzero;fill:rgb(0%,0%,0%);fill-opacity:1;" d="M 14.460938 4.414062 L 14.480469 4.5625 L 14.261719 4.605469 L 14.230469 4.921875 L 14.496094 4.921875 L 14.847656 4.886719 L 15.027344 4.671875 L 14.835938 4.597656 L 14.730469 4.476562 L 14.570312 4.21875 L 14.496094 3.855469 L 14.195312 3.914062 L 14.113281 4.042969 L 14.113281 4.1875 L 14.257812 4.285156 Z M 14.460938 4.414062 "/>
<path style=" stroke:none;fill-rule:nonzero;fill:rgb(0%,0%,0%);fill-opacity:1;" d="M 14.207031 4.535156 L 14.222656 4.339844 L 14.046875 4.261719 L 13.804688 4.320312 L 13.621094 4.609375 L 13.621094 4.800781 L 13.832031 4.800781 Z M 14.207031 4.535156 "/>
<path style=" stroke:none;fill-rule:nonzero;fill:rgb(0%,0%,0%);fill-opacity:1;" d="M 9.167969 5.371094 L 9.113281 5.507812 L 8.851562 5.507812 L 8.851562 5.644531 L 8.914062 5.644531 C 8.914062 5.644531 8.917969 5.671875 8.921875 5.710938 L 9.082031 5.695312 L 9.183594 5.632812 L 9.210938 5.507812 L 9.339844 5.5 L 9.390625 5.394531 L 9.269531 5.367188 Z M 9.167969 5.371094 "/>
<path style=" stroke:none;fill-rule:nonzero;fill:rgb(0%,0%,0%);fill-opacity:1;" d="M 8.496094 5.613281 L 8.484375 5.746094 L 8.671875 5.730469 L 8.691406 5.597656 L 8.578125 5.507812 Z M 8.496094 5.613281 "/>
<path style=" stroke:none;fill-rule:nonzero;fill:rgb(0%,0%,0%);fill-opacity:1;" d="M 19.84375 9.820312 C 19.839844 9.53125 19.828125 9.242188 19.800781 8.957031 C 19.707031 8.011719 19.480469 7.105469 19.144531 6.257812 C 19.117188 6.195312 19.09375 6.128906 19.066406 6.066406 C 18.617188 5 17.980469 4.03125 17.207031 3.191406 C 17.15625 3.136719 17.101562 3.082031 17.050781 3.03125 C 16.90625 2.878906 16.753906 2.730469 16.597656 2.585938 C 14.835938 0.980469 12.492188 0 9.921875 0 C 7.332031 0 4.972656 0.996094 3.203125 2.628906 C 2.792969 3.007812 2.414062 3.421875 2.070312 3.867188 C 0.773438 5.542969 0 7.644531 0 9.921875 C 0 15.394531 4.453125 19.847656 9.921875 19.847656 C 13.773438 19.847656 17.113281 17.644531 18.757812 14.429688 C 19.109375 13.746094 19.386719 13.011719 19.570312 12.246094 C 19.617188 12.050781 19.65625 11.855469 19.691406 11.65625 C 19.792969 11.09375 19.847656 10.515625 19.847656 9.921875 C 19.847656 9.890625 19.84375 9.855469 19.84375 9.820312 Z M 17.976562 5.855469 L 18.035156 5.789062 C 18.109375 5.9375 18.179688 6.085938 18.246094 6.238281 L 18.152344 6.234375 L 17.976562 6.257812 Z M 16.542969 4.125 L 16.542969 3.679688 C 16.699219 3.84375 16.851562 4.015625 16.996094 4.191406 L 16.816406 4.457031 L 16.191406 4.453125 L 16.152344 4.320312 Z M 4.570312 3.023438 L 4.570312 3.003906 L 4.769531 3.003906 L 4.789062 2.9375 L 5.113281 2.9375 L 5.113281 3.078125 L 5.019531 3.203125 L 4.570312 3.203125 Z M 4.890625 3.464844 C 4.890625 3.464844 5.089844 3.429688 5.105469 3.429688 C 5.121094 3.429688 5.105469 3.628906 5.105469 3.628906 L 4.65625 3.65625 L 4.570312 3.554688 Z M 18.609375 7.402344 L 17.882812 7.402344 L 17.441406 7.074219 L 16.976562 7.121094 L 16.976562 7.402344 L 16.828125 7.402344 L 16.667969 7.289062 L 15.863281 7.085938 L 15.863281 6.5625 L 14.839844 6.644531 L 14.523438 6.8125 L 14.117188 6.8125 L 13.917969 6.792969 L 13.425781 7.066406 L 13.425781 7.582031 L 12.417969 8.308594 L 12.503906 8.617188 L 12.707031 8.617188 L 12.652344 8.914062 L 12.507812 8.964844 L 12.5 9.738281 L 13.371094 10.730469 L 13.75 10.730469 L 13.773438 10.667969 L 14.453125 10.667969 L 14.652344 10.488281 L 15.035156 10.488281 L 15.25 10.699219 L 15.824219 10.757812 L 15.746094 11.523438 L 16.386719 12.652344 L 16.050781 13.296875 L 16.074219 13.597656 L 16.339844 13.863281 L 16.339844 14.589844 L 16.6875 15.058594 L 16.6875 15.664062 L 16.984375 15.664062 C 15.3125 17.714844 12.769531 19.03125 9.921875 19.03125 C 4.902344 19.03125 0.816406 14.945312 0.816406 9.921875 C 0.816406 8.660156 1.074219 7.453125 1.542969 6.359375 L 1.542969 6.074219 L 1.867188 5.679688 C 1.980469 5.464844 2.101562 5.257812 2.234375 5.054688 L 2.246094 5.21875 L 1.871094 5.679688 C 1.753906 5.902344 1.644531 6.125 1.542969 6.359375 L 1.542969 6.878906 L 1.921875 7.058594 L 1.921875 7.78125 L 2.285156 8.398438 L 2.578125 8.445312 L 2.617188 8.230469 L 2.269531 7.695312 L 2.203125 7.171875 L 2.40625 7.171875 L 2.492188 7.710938 L 2.996094 8.445312 L 2.867188 8.679688 L 3.183594 9.171875 L 3.980469 9.367188 L 3.980469 9.238281 L 4.296875 9.285156 L 4.269531 9.511719 L 4.515625 9.558594 L 4.902344 9.664062 L 5.449219 10.285156 L 6.144531 10.335938 L 6.210938 10.902344 L 5.734375 11.238281 L 5.714844 11.742188 L 5.644531 12.054688 L 6.335938 12.917969 L 6.386719 13.210938 C 6.386719 13.210938 6.636719 13.28125 6.667969 13.28125 C 6.699219 13.28125 7.226562 13.679688 7.226562 13.679688 L 7.226562 15.238281 L 7.417969 15.292969 L 7.289062 16.011719 L 7.605469 16.4375 L 7.546875 17.148438 L 7.96875 17.886719 L 8.507812 18.359375 L 9.046875 18.367188 L 9.101562 18.195312 L 8.703125 17.859375 L 8.726562 17.691406 L 8.796875 17.488281 L 8.8125 17.277344 L 8.542969 17.269531 L 8.40625 17.101562 L 8.628906 16.886719 L 8.660156 16.722656 L 8.410156 16.652344 L 8.425781 16.5 L 8.78125 16.445312 L 9.324219 16.1875 L 9.503906 15.851562 L 10.070312 15.125 L 9.941406 14.558594 L 10.117188 14.257812 L 10.640625 14.273438 L 10.992188 13.992188 L 11.105469 12.898438 L 11.496094 12.402344 L 11.5625 12.085938 L 11.207031 11.96875 L 10.972656 11.585938 L 10.171875 11.578125 L 9.535156 11.335938 L 9.503906 10.882812 L 9.292969 10.511719 L 8.714844 10.503906 L 8.382812 9.980469 L 8.089844 9.835938 L 8.074219 9.996094 L 7.539062 10.027344 L 7.339844 9.753906 L 6.78125 9.640625 L 6.320312 10.171875 L 5.59375 10.050781 L 5.539062 9.230469 L 5.007812 9.140625 L 5.222656 8.738281 L 5.160156 8.507812 L 4.464844 8.972656 L 4.027344 8.921875 L 3.871094 8.578125 L 3.964844 8.226562 L 4.207031 7.78125 L 4.761719 7.496094 L 5.835938 7.496094 L 5.835938 7.824219 L 6.21875 8.003906 L 6.191406 7.445312 L 6.46875 7.164062 L 7.03125 6.796875 L 7.066406 6.535156 L 7.628906 5.953125 L 8.222656 5.625 L 8.171875 5.582031 L 8.574219 5.199219 L 8.722656 5.238281 L 8.789062 5.324219 L 8.941406 5.15625 L 8.980469 5.136719 L 8.8125 5.113281 L 8.640625 5.058594 L 8.640625 4.894531 L 8.734375 4.820312 L 8.929688 4.820312 L 9.023438 4.859375 L 9.101562 5.019531 L 9.199219 5.003906 L 9.199219 4.992188 L 9.226562 5 L 9.503906 4.957031 L 9.542969 4.820312 L 9.703125 4.863281 L 9.703125 5.007812 L 9.554688 5.109375 L 9.578125 5.273438 L 10.082031 5.429688 C 10.082031 5.429688 10.082031 5.429688 10.085938 5.433594 L 10.199219 5.425781 L 10.207031 5.207031 L 9.808594 5.023438 L 9.785156 4.917969 L 10.117188 4.804688 L 10.132812 4.488281 L 9.785156 4.273438 L 9.761719 3.738281 L 9.285156 3.972656 L 9.109375 3.972656 L 9.15625 3.5625 L 8.507812 3.410156 L 8.238281 3.613281 L 8.238281 4.230469 L 7.757812 4.386719 L 7.5625 4.789062 L 7.351562 4.824219 L 7.351562 4.304688 L 6.898438 4.242188 L 6.671875 4.097656 L 6.582031 3.761719 L 7.394531 3.285156 L 7.789062 3.164062 L 7.828125 3.433594 L 8.050781 3.421875 L 8.066406 3.285156 L 8.300781 3.253906 L 8.304688 3.207031 L 8.203125 3.164062 L 8.179688 3.023438 L 8.464844 3 L 8.636719 2.820312 L 8.703125 2.753906 L 9.300781 2.679688 L 9.5625 2.902344 L 8.871094 3.273438 L 9.753906 3.480469 L 9.867188 3.1875 L 10.253906 3.1875 L 10.390625 2.929688 L 10.117188 2.859375 L 10.117188 2.535156 L 9.261719 2.15625 L 8.671875 2.226562 L 8.339844 2.398438 L 8.359375 2.824219 L 8.011719 2.769531 L 7.960938 2.535156 L 8.292969 2.234375 L 7.6875 2.203125 L 7.511719 2.253906 L 7.4375 2.460938 L 7.664062 2.496094 L 7.621094 2.722656 L 7.234375 2.746094 L 7.171875 2.898438 L 6.613281 2.914062 C 6.613281 2.914062 6.597656 2.597656 6.574219 2.597656 C 6.554688 2.597656 7.015625 2.589844 7.015625 2.589844 L 7.347656 2.261719 L 7.167969 2.171875 L 6.925781 2.40625 L 6.523438 2.382812 L 6.28125 2.050781 L 5.765625 2.050781 L 5.230469 2.453125 L 5.722656 2.453125 L 5.765625 2.597656 L 5.636719 2.714844 L 6.183594 2.730469 L 6.265625 2.925781 L 5.652344 2.902344 L 5.621094 2.753906 L 5.238281 2.667969 L 5.03125 2.554688 L 4.574219 2.558594 C 6.078125 1.464844 7.925781 0.816406 9.921875 0.816406 C 12.226562 0.816406 14.332031 1.675781 15.933594 3.089844 L 15.828125 3.285156 L 15.40625 3.449219 L 15.230469 3.640625 L 15.269531 3.867188 L 15.488281 3.894531 L 15.617188 4.222656 L 15.992188 4.070312 L 16.054688 4.507812 L 15.941406 4.507812 L 15.632812 4.464844 L 15.292969 4.519531 L 14.964844 4.984375 L 14.492188 5.058594 L 14.425781 5.460938 L 14.625 5.511719 L 14.566406 5.769531 L 14.097656 5.675781 L 13.667969 5.769531 L 13.578125 6.007812 L 13.652344 6.507812 L 13.90625 6.625 L 14.328125 6.625 L 14.613281 6.597656 L 14.699219 6.371094 L 15.144531 5.792969 L 15.4375 5.851562 L 15.726562 5.589844 L 15.78125 5.796875 L 16.492188 6.273438 L 16.40625 6.390625 L 16.085938 6.375 L 16.207031 6.550781 L 16.40625 6.59375 L 16.636719 6.496094 L 16.632812 6.21875 L 16.734375 6.167969 L 16.652344 6.078125 L 16.175781 5.816406 L 16.050781 5.464844 L 16.445312 5.464844 L 16.574219 5.589844 L 16.914062 5.878906 L 16.925781 6.234375 L 17.277344 6.609375 L 17.410156 6.097656 L 17.652344 5.960938 L 17.699219 6.382812 L 17.9375 6.644531 L 18.410156 6.636719 C 18.503906 6.871094 18.585938 7.113281 18.660156 7.359375 Z M 5.414062 4.507812 L 5.652344 4.394531 L 5.867188 4.445312 L 5.792969 4.734375 L 5.558594 4.808594 Z M 6.675781 5.191406 L 6.675781 5.378906 L 6.132812 5.378906 L 5.929688 5.320312 L 5.980469 5.191406 L 6.242188 5.082031 L 6.597656 5.082031 L 6.597656 5.191406 Z M 6.929688 5.449219 L 6.929688 5.632812 L 6.792969 5.71875 L 6.621094 5.75 C 6.621094 5.75 6.621094 5.480469 6.621094 5.449219 Z M 6.773438 5.378906 L 6.773438 5.160156 L 6.960938 5.332031 Z M 6.859375 5.8125 L 6.859375 5.992188 L 6.730469 6.121094 L 6.441406 6.121094 L 6.484375 5.921875 L 6.621094 5.910156 L 6.652344 5.84375 Z M 6.140625 5.449219 L 6.441406 5.449219 L 6.054688 5.988281 L 5.894531 5.90625 L 5.929688 5.679688 Z M 7.371094 5.75 L 7.371094 5.929688 L 7.082031 5.929688 L 7.003906 5.8125 L 7.003906 5.648438 L 7.023438 5.648438 Z M 7.105469 5.507812 L 7.1875 5.421875 L 7.324219 5.507812 L 7.214844 5.601562 Z M 18.757812 7.863281 L 18.785156 7.828125 C 18.796875 7.882812 18.808594 7.933594 18.820312 7.984375 Z M 18.757812 7.863281 "/>
<path style=" stroke:none;fill-rule:nonzero;fill:rgb(0%,0%,0%);fill-opacity:1;" d="M 1.542969 6.074219 L 1.542969 6.359375 C 1.644531 6.128906 1.753906 5.902344 1.871094 5.679688 Z M 1.542969 6.074219 "/>
</g>
</svg>
